<svg width="18" height="18" viewBox="0 0 18 18" fill="none" xmlns="http://www.w3.org/2000/svg">
<path d="M15.5621 5.01826L13.7081 3.17132C13.6295 3.07438 13.5894 2.95184 13.5955 2.82713C13.6017 2.70141 13.6544 2.58248 13.7434 2.49348C13.8324 2.40447 13.9514 2.35176 14.0771 2.34558C14.2018 2.33946 14.3244 2.37957 14.4213 2.45819L17.2314 5.26824C17.2314 5.26828 17.2314 5.26832 17.2315 5.26836C17.3254 5.36329 17.3782 5.49147 17.3782 5.62504C17.3782 5.75861 17.3254 5.88679 17.2315 5.98172C17.2314 5.98176 17.2314 5.9818 17.2314 5.98184L14.4198 8.79339C14.4197 8.7935 14.4196 8.79362 14.4195 8.79373C14.3237 8.88621 14.1957 8.9379 14.0625 8.9379C13.9294 8.9379 13.8015 8.88626 13.7056 8.79387C13.6119 8.69897 13.5593 8.57095 13.5593 8.43754C13.5593 8.30398 13.612 8.17582 13.706 8.08089C13.706 8.08084 13.7061 8.08079 13.7061 8.08074L15.5621 6.23182L15.6693 6.12504H15.518H12.375C11.6125 6.12504 10.8812 6.42794 10.3421 6.96711C9.80289 7.50627 9.49999 8.23754 9.49999 9.00004C9.49999 10.0278 9.09173 11.0134 8.36503 11.7401C7.63833 12.4668 6.6527 12.875 5.62499 12.875H5.56171H5.51185L5.50077 12.9237C5.36589 13.5154 5.01774 14.0368 4.52281 14.3881C4.02788 14.7395 3.42086 14.8962 2.81771 14.8283C2.21456 14.7604 1.65755 14.4728 1.25307 14.0202C0.848594 13.5677 0.625 12.982 0.625 12.375C0.625 11.7681 0.848594 11.1824 1.25307 10.7299C1.65755 10.2773 2.21456 9.98963 2.81771 9.92177C3.42086 9.8539 4.02788 10.0106 4.52281 10.362C5.01774 10.7133 5.36589 11.2346 5.50077 11.8264L5.51185 11.875H5.56171H5.62499C6.38749 11.875 7.11875 11.5721 7.65792 11.033C8.19709 10.4938 8.49999 9.76254 8.49999 9.00004C8.49999 7.97233 8.90825 6.9867 9.63495 6.26C10.3617 5.5333 11.3473 5.12504 12.375 5.12504H15.518H15.6693L15.5621 5.01826Z" fill="#575757" stroke="#575757" stroke-width="0.125"/>
</svg>
