<svg width="14" height="14" viewBox="0 0 14 14" fill="none" xmlns="http://www.w3.org/2000/svg">
<path d="M3.42352 1.64741C4.48214 0.940064 5.72675 0.562512 6.99994 0.5625C8.70628 0.565788 10.3418 1.24508 11.5484 2.45165C12.7549 3.65823 13.4342 5.29376 13.4375 7.00012C13.4375 8.2733 13.0599 9.51787 12.3526 10.5765C11.6452 11.6351 10.6398 12.4602 9.46353 12.9475C8.28723 13.4347 6.99286 13.5622 5.74411 13.3138C4.49536 13.0654 3.3483 12.4523 2.448 11.552C1.5477 10.6517 0.93459 9.50465 0.686198 8.25589C0.437805 7.00714 0.565289 5.71277 1.05253 4.53648C1.53977 3.36018 2.36488 2.35478 3.42352 1.64741ZM6.5486 10.9256C6.68222 11.0148 6.83931 11.0625 7 11.0625C7.21549 11.0625 7.42215 10.9769 7.57453 10.8245C7.7269 10.6722 7.8125 10.4655 7.8125 10.25C7.8125 10.0893 7.76485 9.93221 7.67557 9.7986C7.58629 9.66498 7.4594 9.56084 7.31093 9.49935C7.16247 9.43785 6.9991 9.42176 6.84149 9.45311C6.68388 9.48446 6.53911 9.56185 6.42548 9.67548C6.31185 9.78911 6.23447 9.93388 6.20311 10.0915C6.17176 10.2491 6.18785 10.4125 6.24935 10.5609C6.31085 10.7094 6.41499 10.8363 6.5486 10.9256ZM7.5625 8V7.99305C7.96797 7.89137 8.33864 7.68158 8.63475 7.38563C8.94265 7.07789 9.15744 6.6895 9.25441 6.26511C9.35137 5.84072 9.32658 5.39758 9.18288 4.98666C9.03918 4.57574 8.78241 4.21372 8.4421 3.94225C8.1018 3.67077 7.69177 3.50087 7.25919 3.45208C6.82661 3.40329 6.38904 3.47759 5.99681 3.66644C5.60458 3.85529 5.27363 4.15101 5.042 4.5196C4.81038 4.88819 4.6875 5.31468 4.6875 5.75C4.6875 5.89918 4.74677 6.04226 4.85226 6.14775C4.95774 6.25324 5.10082 6.3125 5.25 6.3125C5.39919 6.3125 5.54226 6.25324 5.64775 6.14775C5.75324 6.04226 5.8125 5.89918 5.8125 5.75C5.8125 5.51513 5.88215 5.28554 6.01263 5.09026C6.14312 4.89498 6.32858 4.74277 6.54557 4.65289C6.76255 4.56301 7.00132 4.5395 7.23167 4.58532C7.46203 4.63114 7.67362 4.74424 7.83969 4.91031C8.00577 5.07639 8.11887 5.28798 8.16469 5.51833C8.21051 5.74868 8.18699 5.98745 8.09711 6.20444C8.00723 6.42142 7.85503 6.60689 7.65974 6.73737C7.46446 6.86785 7.23487 6.9375 7 6.9375C6.85082 6.9375 6.70774 6.99676 6.60226 7.10225C6.49677 7.20774 6.4375 7.35082 6.4375 7.5V8C6.4375 8.14918 6.49677 8.29226 6.60226 8.39775C6.70774 8.50324 6.85082 8.5625 7 8.5625C7.14919 8.5625 7.29226 8.50324 7.39775 8.39775C7.50324 8.29226 7.5625 8.14918 7.5625 8Z" fill="#575757" stroke="#575757" stroke-width="0.125"/>
</svg>
