<svg width="28" height="28" viewBox="0 0 28 28" fill="none" xmlns="http://www.w3.org/2000/svg">
<g opacity="0.5">
<path d="M19.2289 20.3102L19.158 20.2391L19.0811 20.3037C17.1127 21.957 14.582 22.7866 12.0169 22.6195C9.45166 22.4523 7.05004 21.3013 5.31288 19.4064C3.57572 17.5116 2.63714 15.0192 2.6929 12.4492C2.74866 9.87919 3.79445 7.42991 5.61216 5.6122C7.42988 3.79448 9.87916 2.74869 12.4492 2.69293C15.0192 2.63717 17.5115 3.57575 19.4064 5.31291C21.3012 7.05007 22.4523 9.45169 22.6194 12.0169C22.7866 14.5821 21.957 17.1128 20.3037 19.0812L20.2392 19.158L20.3101 19.2289L25.0351 23.9539L25.0357 23.9545C25.108 24.0257 25.1655 24.1106 25.2047 24.2043C25.2439 24.2979 25.2641 24.3984 25.2641 24.5C25.2641 24.6015 25.2439 24.702 25.2047 24.7957C25.1655 24.8893 25.108 24.9742 25.0357 25.0455C24.8928 25.1862 24.7004 25.2652 24.4999 25.2656C24.2961 25.2646 24.1005 25.1857 23.9529 25.0452L19.2289 20.3102ZM12.6873 21.1093H12.6874C14.3531 21.1093 15.9814 20.6154 17.3664 19.69C18.7513 18.7646 19.8308 17.4493 20.4682 15.9104C21.1057 14.3715 21.2724 12.6781 20.9475 11.0444C20.6225 9.41075 19.8204 7.91011 18.6426 6.73229C17.4648 5.55447 15.9641 4.75236 14.3305 4.4274C12.6968 4.10245 11.0034 4.26923 9.46451 4.90666C7.92562 5.54409 6.6103 6.62354 5.68489 8.00851C4.75948 9.39348 4.26555 11.0218 4.26555 12.6875L4.26555 12.6876C4.26848 14.9203 5.15671 17.0607 6.73546 18.6394C8.3142 20.2182 10.4546 21.1064 12.6873 21.1093ZM19.1405 12.6875C19.1405 13.9638 18.7621 15.2114 18.053 16.2726C17.3439 17.3338 16.3361 18.1609 15.1569 18.6494C13.9778 19.1378 12.6803 19.2656 11.4285 19.0166C10.1767 18.7676 9.02686 18.153 8.12438 17.2505C7.22189 16.348 6.60729 15.1982 6.35829 13.9464C6.1093 12.6946 6.23709 11.3971 6.72551 10.218C7.21394 9.0388 8.04105 8.03096 9.10226 7.32188C10.1635 6.6128 11.4111 6.23433 12.6874 6.23433C14.3989 6.23433 16.0403 6.91421 17.2505 8.12441C18.4607 9.3346 19.1405 10.976 19.1405 12.6875Z" fill="black" stroke="#575757" stroke-width="0.21875"/>
</g>
</svg>
