<svg width="14" height="16" viewBox="0 0 14 16" fill="none" xmlns="http://www.w3.org/2000/svg">
<path d="M13.4709 11.3993L13.471 11.3994C13.5652 11.5616 13.6154 11.7458 13.6166 11.9334C13.6178 12.121 13.5699 12.3057 13.4777 12.4691C13.3848 12.6314 13.2504 12.766 13.0883 12.8593C12.9262 12.9526 12.7422 13.0012 12.5551 13H12.5547H9.81251H9.75001V13.0625C9.75001 13.7918 9.46028 14.4913 8.94455 15.007C8.42882 15.5228 7.72935 15.8125 7.00001 15.8125C6.27066 15.8125 5.57119 15.5228 5.05546 15.007C4.53974 14.4913 4.25001 13.7918 4.25001 13.0625V13H4.18751H1.44532C1.25814 13 1.07429 12.9506 0.912356 12.8567C0.750424 12.7629 0.616161 12.6279 0.523154 12.4655C0.430146 12.303 0.381696 12.1189 0.382706 11.9318C0.383716 11.7446 0.43415 11.561 0.528906 11.3996L0.529107 11.3993C0.950499 10.6708 1.45157 9.29541 1.45157 6.875V6.3125V6.31242C1.45065 5.58287 1.59345 4.86028 1.87179 4.18591C2.15014 3.51154 2.55858 2.89859 3.07381 2.38207C3.58904 1.86556 4.20096 1.45558 4.87463 1.17554C5.5483 0.895513 6.27053 0.750912 7.00008 0.75L7.04198 0.75C10.0793 0.770969 12.5484 3.29449 12.5484 6.37578V6.875C12.5484 9.29541 13.0495 10.6708 13.4709 11.3993ZM9.87501 13.0625H12.5547L0.475005 11.368C0.374677 11.5389 0.321276 11.7333 0.320207 11.9314C0.319137 12.1296 0.370438 12.3245 0.468916 12.4965C0.567394 12.6685 0.709555 12.8114 0.881013 12.9108C1.05247 13.0102 1.24714 13.0625 1.44532 13.0625H4.12501H4.18751C4.18751 13.8084 4.48382 14.5238 5.01127 15.0512C5.53871 15.5787 6.25409 15.875 7.00001 15.875C7.74593 15.875 8.4613 15.5787 8.98874 15.0512C9.51619 14.5238 9.81251 13.8084 9.81251 13.0625H9.87501ZM5.31251 13H5.24975L5.25001 13.0628C5.25193 13.5262 5.43689 13.9702 5.76461 14.2979C6.09234 14.6256 6.53628 14.8106 6.99975 14.8125L7.00027 14.8125C7.46373 14.8106 7.90767 14.6256 8.2354 14.2979C8.56312 13.9702 8.74809 13.5262 8.75001 13.0628L8.75027 13H8.68751H5.31251Z" fill="#575757" stroke="#575757" stroke-width="0.125"/>
</svg>
