<svg width="13" height="14" viewBox="0 0 13 14" fill="none" xmlns="http://www.w3.org/2000/svg">
<path d="M8.92186 10.4513V10.3154V9.34455C8.92056 9.29582 8.9107 9.24771 8.89274 9.20241L6.56645 4.1621H6.55927L6.54354 4.12285C6.53923 4.11211 6.53359 4.10195 6.52675 4.09263L6.51464 4.07612V4.07421H6.51303L6.49427 4.05089C6.49124 4.04713 6.48804 4.0435 6.48469 4.04003H6.47589L6.45834 4.02498L6.44171 4.01073H6.43714L6.42194 4.00123L6.39477 3.98425L6.39136 3.98311L6.35703 3.97167H6.35253H6.33864L6.33897 3.97018L6.30172 3.9619H6.19759L6.15482 3.97046L6.14257 3.97291V3.97226L6.11568 3.98234L6.10507 3.98632H6.09724L6.06541 4.00046L6.06362 4.00126L6.04164 4.0201L6.02409 4.03515H6.01709L6.00121 4.05102L5.98778 4.06445L5.97858 4.07733L5.97253 4.08581L5.97192 4.0852L5.97057 4.08655C5.96417 4.1004 5.95657 4.11366 5.94785 4.1262L4.87121 6.4646L4.87119 6.46466L3.60724 9.20241C3.58928 9.24772 3.57942 9.29583 3.57811 9.34455V10.3154V10.4513L3.47494 10.3629C3.37157 10.2743 3.26779 10.1804 3.1687 10.0813L8.92186 10.4513ZM8.92186 10.4513L9.02504 10.3629M8.92186 10.4513L9.02504 10.3629M9.02504 10.3629C9.12841 10.2743 9.23219 10.1804 9.33127 10.0813M9.02504 10.3629L9.33127 10.0813M9.33127 10.0813C9.33128 10.0813 9.33129 10.0813 9.33129 10.0813C9.94131 9.47177 10.3568 8.69502 10.5253 7.84929C10.6938 7.00356 10.6077 6.12685 10.2779 5.33007C9.94802 4.53329 9.38927 3.85224 8.6723 3.37307C7.95533 2.8939 7.11234 2.63813 6.24999 2.63813C5.38764 2.63813 4.54465 2.8939 3.82768 3.37307C3.11071 3.85224 2.55196 4.53329 2.22211 5.33007C1.89227 6.12685 1.80614 7.00356 1.97464 7.84929C2.14313 8.69502 2.55867 9.47177 3.16869 10.0813L9.33127 10.0813ZM9.7946 3.45525L9.79472 3.45538C10.261 3.9204 10.631 4.47286 10.8835 5.0811C11.1359 5.68935 11.2658 6.34144 11.2658 6.99999C11.2658 7.65854 11.1359 8.31063 10.8835 8.91887C10.631 9.52712 10.261 10.0796 9.79472 10.5446L9.7946 10.5447C9.32958 11.011 8.77712 11.381 8.16887 11.6335C7.56063 11.8859 6.90854 12.0158 6.24999 12.0158C5.59144 12.0158 4.93935 11.8859 4.3311 11.6335C3.72286 11.381 3.1704 11.011 2.70538 10.5447L2.70525 10.5446C2.23894 10.0796 1.86896 9.52712 1.61652 8.91887C1.36407 8.31063 1.23413 7.65854 1.23413 6.99999C1.23413 6.34144 1.36407 5.68935 1.61652 5.0811C1.86896 4.47286 2.23894 3.9204 2.70525 3.45538L2.70538 3.45525C3.1704 2.98894 3.72286 2.61896 4.3311 2.36652C4.93935 2.11407 5.59144 1.98413 6.24999 1.98413C6.90854 1.98413 7.56063 2.11407 8.16887 2.36652C8.77712 2.61896 9.32958 2.98894 9.7946 3.45525ZM6.20295 9.13587L6.24999 9.18964L6.29703 9.13587C6.48116 8.92539 6.72063 8.77077 6.98823 8.68958C7.25584 8.60839 7.54085 8.60387 7.81089 8.67655L7.93994 8.71129L7.88387 8.58998L7.1368 6.97377L7.12003 6.93749H7.08007H5.41991H5.37995L5.36318 6.97377L4.61611 8.58998L4.56004 8.71129L4.68908 8.67655C4.95913 8.60387 5.24414 8.60839 5.51174 8.68958C5.77935 8.77077 6.01882 8.92539 6.20295 9.13587ZM8.23131 10.8839L8.26561 10.8665V10.8281V10.125C8.26561 9.90121 8.17672 9.6866 8.01849 9.52837C7.86025 9.37013 7.64564 9.28124 7.42186 9.28124C7.19809 9.28124 6.98348 9.37013 6.82524 9.52837C6.66701 9.6866 6.57811 9.90121 6.57811 10.125V11.2773V11.3459L6.64634 11.3396C7.19863 11.2887 7.73636 11.1341 8.23131 10.8839Z" fill="#575757" stroke="#575757" stroke-width="0.125"/>
</svg>
