<svg width="18" height="18" viewBox="0 0 18 18" fill="none" xmlns="http://www.w3.org/2000/svg">
<path d="M6.77167 12.5044L6.77167 12.5044L6.77271 12.5048C6.83491 12.5252 6.89243 12.5578 6.94191 12.6006C6.99138 12.6435 7.03182 12.6958 7.06086 12.7545C7.08991 12.8131 7.10698 12.877 7.11107 12.9423C7.11517 13.0077 7.10621 13.0732 7.08471 13.135L7.08471 13.135L7.08438 13.136C6.71201 14.2669 5.81521 15.0981 4.48724 15.5431C3.8893 15.7405 3.26548 15.8484 2.636 15.8633C2.50365 15.8632 2.37676 15.8105 2.28317 15.7169C2.18957 15.6233 2.13691 15.4964 2.13672 15.3641C2.1517 14.7346 2.25961 14.1107 2.45696 13.5128C2.90195 12.1848 3.73317 11.288 4.86408 10.9157L4.86417 10.9159L4.86966 10.9135C4.93317 10.8856 5.0018 10.8713 5.07116 10.8713C5.14053 10.8714 5.20913 10.8859 5.27259 10.9139C5.33605 10.9419 5.39299 10.9828 5.43978 11.034C5.48658 11.0852 5.52221 11.1456 5.54441 11.2113C5.5666 11.2771 5.57488 11.3467 5.56872 11.4158C5.56255 11.4849 5.54208 11.5519 5.5086 11.6127C5.47511 11.6734 5.42936 11.7265 5.37423 11.7687C5.31911 11.8108 5.25583 11.841 5.18841 11.8573L5.18836 11.8571L5.18327 11.8588C4.4718 12.0971 4.00751 12.6008 3.70519 13.1509C3.40326 13.7003 3.26109 14.2988 3.1937 14.735L3.18067 14.8194L3.26501 14.8064C3.70123 14.739 4.29977 14.5968 4.84915 14.2949C5.39923 13.9925 5.90293 13.5283 6.14129 12.8168L6.14142 12.8164C6.16182 12.7542 6.19441 12.6967 6.23728 12.6472C6.28016 12.5977 6.33245 12.5573 6.39112 12.5283C6.44979 12.4992 6.51366 12.4821 6.579 12.4781C6.64433 12.474 6.70983 12.4829 6.77167 12.5044Z" fill="#575757" stroke="#575757" stroke-width="0.125"/>
<path d="M15.9412 2.94765L15.9413 2.94838C16.0589 3.72985 16.1166 5.7677 14.1238 7.76051L14.1235 7.76076L13.4978 8.39357L13.4797 8.41183V8.43752V12.7475C13.4777 13.0289 13.3657 13.2983 13.1675 13.498C13.1675 13.4981 13.1674 13.4981 13.1674 13.4982L10.8895 15.769L10.8889 15.7696C10.7915 15.8694 10.6749 15.9484 10.5461 16.002C10.4173 16.0555 10.2791 16.0825 10.1396 16.0813L10.1386 16.0813C10.0355 16.0821 9.9329 16.0665 9.83471 16.035L9.83358 16.0347C9.64873 15.9793 9.48244 15.8746 9.35258 15.7319C9.22272 15.5892 9.13418 15.4138 9.09647 15.2245L9.09646 15.2245L8.54099 12.4471L8.53728 12.4286L8.5239 12.4152L5.58484 9.47614L5.57145 9.46276L5.5529 9.45904L2.77555 8.90358L2.77551 8.90357C2.58627 8.86585 2.41086 8.77731 2.26813 8.64745C2.1254 8.51759 2.02073 8.35131 1.96536 8.16646L1.96528 8.16621C1.90949 7.98275 1.90473 7.78757 1.95151 7.60161C1.99829 7.41565 2.09485 7.24595 2.23081 7.11074L2.231 7.11055L4.50185 4.83267C4.50189 4.83263 4.50192 4.83259 4.50196 4.83256C4.70175 4.63438 4.97118 4.5223 5.25258 4.52033H9.56252H9.5882L9.60646 4.50227L10.2393 3.87649L10.2395 3.87624C12.2323 1.88344 14.2702 1.94113 15.0517 2.0587L15.0524 2.0588C15.2771 2.0899 15.4856 2.19355 15.646 2.354C15.8065 2.51444 15.9101 2.72289 15.9412 2.94765ZM2.18673 7.06642C2.04272 7.20965 1.94045 7.38939 1.8909 7.58636C1.84135 7.78333 1.84639 7.99008 1.90548 8.18439C1.96412 8.38012 2.07494 8.55618 2.22607 8.69368C2.3772 8.83118 2.56292 8.92493 2.7633 8.96486L2.18673 7.06642ZM5.25236 5.52033H5.22641L5.2081 5.5387L2.937 7.81683L2.85461 7.89948L2.96907 7.92225L5.61985 8.4496L5.65262 8.45612L5.67624 8.43249L8.48171 5.62702L8.5884 5.52033H8.43752H5.25236ZM12.4613 12.7919L12.4797 12.7736V12.7477V9.56252V9.41163L12.373 9.51832L9.56754 12.3238L9.54392 12.3474L9.55044 12.3802L10.0778 15.031L10.1006 15.1454L10.1832 15.063L12.4613 12.7919Z" fill="#575757" stroke="#575757" stroke-width="0.125"/>
</svg>
