<svg width="16" height="16" viewBox="0 0 16 16" fill="none" xmlns="http://www.w3.org/2000/svg">
<path d="M14.5 5.9875V5.9625C14.4973 5.95222 14.4952 5.94178 14.4937 5.93125V5.9125C14.4875 5.9 14.4875 5.8875 14.4812 5.875V5.8625L13.5875 2.725C13.5259 2.51698 13.3991 2.33425 13.2258 2.20373C13.0526 2.0732 12.8419 2.00179 12.625 2H3.375C3.15806 2.00179 2.94744 2.0732 2.77416 2.20373C2.60087 2.33425 2.47409 2.51698 2.4125 2.725L1.51875 5.8625V5.875C1.5125 5.8875 1.5125 5.9 1.50625 5.9125V5.93125C1.50479 5.94178 1.5027 5.95222 1.5 5.9625V7C1.5 7.38811 1.59036 7.7709 1.76393 8.11803C1.9375 8.46517 2.18951 8.76713 2.5 9V13C2.5 13.2652 2.60536 13.5196 2.79289 13.7071C2.98043 13.8946 3.23478 14 3.5 14H12.5C12.7652 14 13.0196 13.8946 13.2071 13.7071C13.3946 13.5196 13.5 13.2652 13.5 13V9C13.8105 8.76713 14.0625 8.46517 14.2361 8.11803C14.4096 7.7709 14.5 7.38811 14.5 7V5.9875ZM2.5 6.5H5.5V7C5.50023 7.25798 5.43392 7.51165 5.30747 7.73652C5.18103 7.96139 4.99873 8.14984 4.77818 8.28368C4.55764 8.41751 4.3063 8.49221 4.04846 8.50054C3.79061 8.50887 3.53498 8.45057 3.30625 8.33125C3.27168 8.30386 3.2339 8.28077 3.19375 8.2625C2.98106 8.12761 2.80592 7.94113 2.68463 7.72041C2.56334 7.49968 2.49983 7.25186 2.5 7V6.5ZM9.5 7C9.5 7.39782 9.34196 7.77936 9.06066 8.06066C8.77936 8.34196 8.39782 8.5 8 8.5C7.60218 8.5 7.22064 8.34196 6.93934 8.06066C6.65804 7.77936 6.5 7.39782 6.5 7V6.5H9.5V7ZM12.8062 8.2625C12.7661 8.28077 12.7283 8.30386 12.6938 8.33125C12.465 8.45057 12.2094 8.50887 11.9515 8.50054C11.6937 8.49221 11.4424 8.41751 11.2218 8.28368C11.0013 8.14984 10.819 7.96139 10.6925 7.73652C10.5661 7.51165 10.4998 7.25798 10.5 7V6.5H13.5V7C13.5002 7.25186 13.4367 7.49968 13.3154 7.72041C13.1941 7.94113 13.0189 8.12761 12.8062 8.2625Z" fill="#747474"/>
</svg>
