<svg width="13" height="14" viewBox="0 0 13 14" fill="none" xmlns="http://www.w3.org/2000/svg">
<path d="M9.03125 3.09375V3.15625H9.09375H11.0469C11.1339 3.15625 11.2174 3.19082 11.2789 3.25236C11.3404 3.31389 11.375 3.39735 11.375 3.48438C11.375 3.5714 11.3404 3.65486 11.2789 3.71639C11.2174 3.77793 11.1339 3.8125 11.0469 3.8125H10.6562H10.5938V3.875V10.9062C10.5938 11.0969 10.518 11.2797 10.3832 11.4145C10.2484 11.5493 10.0656 11.625 9.875 11.625H3.625C3.43438 11.625 3.25156 11.5493 3.11677 11.4145C2.98198 11.2797 2.90625 11.0969 2.90625 10.9062V3.875V3.8125H2.84375H2.45312C2.3661 3.8125 2.28264 3.77793 2.22111 3.71639C2.15957 3.65486 2.125 3.5714 2.125 3.48438C2.125 3.39735 2.15957 3.31389 2.22111 3.25236C2.28264 3.19082 2.3661 3.15625 2.45312 3.15625H4.40625H4.46875V3.09375V2.70327C4.47 2.40939 4.58729 2.12791 4.7951 1.9201C5.0029 1.71229 5.28438 1.595 5.57826 1.59375H7.92174C8.21562 1.595 8.4971 1.71229 8.7049 1.9201C8.91271 2.12791 9.03 2.40939 9.03125 2.70327C9.03125 2.70331 9.03125 2.70335 9.03125 2.70338L9.03125 3.09375ZM8.3125 3.15625H8.375V3.09375V2.70312C8.375 2.58295 8.32726 2.46769 8.24228 2.38272C8.15731 2.29774 8.04205 2.25 7.92188 2.25H5.57812C5.45795 2.25 5.34269 2.29774 5.25772 2.38272C5.17274 2.46769 5.125 2.58295 5.125 2.70312V3.09375V3.15625H5.1875H8.3125ZM5.89853 9.27353C5.98351 9.18856 6.03125 9.0733 6.03125 8.95312V5.82812C6.03125 5.70795 5.98351 5.59269 5.89853 5.50772C5.81356 5.42274 5.6983 5.375 5.57812 5.375C5.45795 5.375 5.34269 5.42274 5.25772 5.50772C5.17274 5.59269 5.125 5.70795 5.125 5.82812V8.95312C5.125 9.0733 5.17274 9.18856 5.25772 9.27353C5.34269 9.35851 5.45795 9.40625 5.57812 9.40625C5.6983 9.40625 5.81356 9.35851 5.89853 9.27353ZM8.24228 9.27353C8.32726 9.18856 8.375 9.0733 8.375 8.95312V5.82812C8.375 5.70795 8.32726 5.59269 8.24228 5.50772C8.15731 5.42274 8.04205 5.375 7.92188 5.375C7.8017 5.375 7.68644 5.42274 7.60147 5.50772C7.51649 5.59269 7.46875 5.70795 7.46875 5.82812V8.95312C7.46875 9.0733 7.51649 9.18856 7.60147 9.27353C7.68644 9.35851 7.8017 9.40625 7.92188 9.40625C8.04205 9.40625 8.15731 9.35851 8.24228 9.27353Z" fill="#575757" stroke="#575757" stroke-width="0.125"/>
</svg>
